<?xml version="1.0" encoding="UTF-8"?><svg id="Calque_2" xmlns="http://www.w3.org/2000/svg" viewBox="0 0 809.71 92.98"><defs><style>.cls-1{fill:#1f2020;}.cls-1,.cls-2,.cls-3{stroke-width:0px;}.cls-2{fill:#efd753;}.cls-3{fill:#fbfbfc;}</style></defs><g id="Calque_2-2"><path class="cls-1" d="m532.2,0c1.64,1.91,4.06.97,6.08,1.57,11.36,3.39,16.68,12.89,13.34,24.27-1.5,5.11-4.66,9.23-7.6,13.46.62,1.13,1.74,1.33,2.7,1.81,6.99,3.46,12.48,8.19,12.93,16.62.5,9.26-3.87,16.04-11.56,20.76-7.15,4.39-15.23,5.89-23.43,6.66-2.3.22-3.96.66-5.57,2.63-2.67,3.28-7.52,3.72-9.92.64-2.96-3.81-6.94-5.14-11.1-6.54-2.43-.82-4.65-1.99-5.93-4.38-3.07-5.78,1.22-12.07,8.15-11.42,2.71.25,2.89-.57,2.8-2.64-.51-11.6-.97-23.2-1.48-35.5-3.96,2.85-7.59,3.74-10.59-.41-2.22-3.08-1.48-7.89,2.04-11.64,7.43-7.92,17.27-11.23,27.38-14.02,2.03-.56,4.36-.2,6.04-1.87h5.7Zm-25.09,64.43q.27,6.4-6.3,5.62c-.63-.07-1.26-.19-1.88-.15-1.75.09-3.08.96-3.59,2.6-.55,1.8-.19,3.53,1.62,4.49,1.52.8,3.13,1.47,4.76,2.03,3.58,1.24,7.03,2.37,9.33,5.91,1.72,2.65,4.26,1.86,5.79-.52,1.57-2.45,3.59-2.9,6.33-3.11,9.5-.72,18.92-2.18,26.42-8.78,9.7-8.54,8.08-21.2-3.33-27.21-1.53-.81-3.12-1.51-4.71-2.19-2.62-1.13-3.23-2.69-1.45-5.13,2.6-3.56,5.37-7.04,7.06-11.17,4.58-11.17-1.28-21.17-13.34-22.05-13.54-1-25.34,3.91-35.99,11.87-1.35,1.01-2.48,2.48-3.29,3.97-.9,1.66-1.45,3.71.29,5.23,1.91,1.67,3.15-.25,4.41-1.25,1.36-1.08,2.65-2.67,4.5-1.97,2.23.84,1.69,3.12,1.77,4.95.54,12.29,1.06,24.58,1.58,36.87Z"/><path class="cls-1" d="m0,59.77c3.08-2.2,5.86-4.83,9.65-5.95,2.46-.72,2.25-3.2,2.64-5.1,2.21-10.65,4.24-21.38,9.95-30.85,4.83-8.02,11.51-13.32,21.51-13.16,7.79.12,12.97,3.8,16.03,11.65,4.09,10.5,2.93,21.47,2.79,32.32-.05,3.78-.61,7.37,1.83,10.86,1.49,2.14,1.21,5.01-1.12,6.85-2.08,1.64-2.54,3.58-2.64,6.11-.14,3.44-.57,6.94-2.43,10.01-1.49,2.45-3.56,4.08-6.6,3.8-2.89-.26-4.89-1.7-6.14-4.48-1.96-4.34-2.07-8.88-1.92-13.46.08-2.33-.45-3.68-3.09-3.27-.31.05-.63,0-.95,0q-10.22-.16-10.4,9.91c-.11,6.09-2,8.95-6.31,9.55-5,.69-7.59-1.17-9.57-6.99-.45-1.33-.76-2.72-1.02-4.11-.51-2.71-.75-5.01-4.88-3.83-3.14.9-5.36-1.9-7.32-4.18v-5.69Zm59.12-20.92c-.12-7.12-.24-14.21-2.94-20.95-3.29-8.24-9.24-11.11-17.81-8.65-8.07,2.32-12.22,8.55-15.38,15.6-3.17,7.06-5.16,14.55-6.37,22.15-.92,5.8-2.44,10.6-8.99,12.05-.99.22-1.96,1.08-2.67,1.88-1.81,2.02-.9,4.44,1.8,4.74,1.22.13,2.59.02,3.73-.41,3.48-1.31,4.47.2,4.82,3.44.32,2.95,1.09,5.87,1.95,8.72.68,2.26,2.15,3.79,4.92,3.32,2.81-.48,2.84-2.59,2.88-4.66.07-3.31.06-6.63.01-9.95-.04-2.84,1.06-4.45,4.12-4.51,4.1-.09,8.2-.37,12.29-.54,4.22-.18,6.45,1.3,6.05,6.08-.35,4.2-.55,8.54,1.26,12.59.59,1.32,1.26,2.64,2.95,2.72,1.85.09,2.84-1.11,3.5-2.66,1.2-2.8,1.35-5.8,1.59-8.77.11-1.41-.25-3.66.47-4.1,5.19-3.13,2.94-6.76,1.36-10.68-.67-1.65-.36-3.74-.28-5.62.17-3.93.48-7.86.74-11.78Z"/><path class="cls-1" d="m809.71,19.92c-2.7,8.99-3.65,18.3-4.64,27.55-1.16,10.8-2.01,21.66-.89,32.56.35,3.37-.67,6.45-4.04,7.83-3.62,1.48-6.77.33-9.29-2.65-1.11-1.31-1.66-3.36-4.36-1.87-13.95,7.69-32.69-.7-32.76-22.61-.04-13.93,10.27-27.68,22.87-30.82.61-.15,1.22-.29,1.84-.43,2.7-.63,6.25,1.5,7.98-.7,1.56-2,1.17-5.42,1.94-8.14.85-3.01,1.85-6.01,3.1-8.88,1.85-4.23,4.52-7.61,9.78-7.61,4.92,0,7.01,3.25,8.48,7.24v8.54Zm-4.39-2.14c0-1.84.05-3.26-.01-4.67-.1-2.08-.21-4.17-2.87-4.78-2.43-.55-4.45.07-5.75,2.19-1.15,1.86-2.26,3.81-3.01,5.85-1.58,4.28-2.71,8.71-3.17,13.28-.36,3.51-1.42,5.48-5.7,4.06-4.39-1.45-8.75-.34-12.67,2.09-9.13,5.66-13.97,14.02-14.43,24.59-.7,16.12,12.75,27.13,28.4,18.85,3.55-1.88,5.37-1.14,6.94,2.33.85,1.9,2.55,3.39,4.93,2.83,2.75-.64,2.42-3.01,2.28-5.01-.3-4.24-.58-8.45-.49-12.73.34-16.6,3.42-32.89,5.56-48.88Z"/><path class="cls-1" d="m337.38,92.98c-6.91-5.13-7.51-9.95-1.7-16.48,2.4-2.69,5.2-5.08,8.07-7.28,3.01-2.3,3.64-4.19.52-6.99-2.45-2.19-4.39-4.91-6.09-7.79-4.18-7.08-3.86-14.21.29-20.99,4.28-6.98,10.76-10.44,19.12-9.81,5.84.44,10,3.73,10.66,8.3.65,4.5-1.63,7.48-7.6,9.93q-8.07,3.32-2.76,10.09c2.99,3.84,6.44,7.48,7.1,12.58,1.35,10.41-4.72,17.18-11.99,23.1-2.67,2.17-5.96,3.58-8.97,5.33h-6.65Zm18.82-65.54c-7.12-.05-13.48,4.39-15.94,10.98-3.11,8.34.72,14.59,6.11,20.45,6.07,6.6,5.93,8.22-1,14.01-3.28,2.74-6.7,5.31-8.87,9.1-1.01,1.77-1.22,3.61.09,5.33,1.17,1.55,2.89,1.82,4.69,1.65,8.09-.76,19.09-11.83,19.95-20,.31-2.92-.02-5.66-1.79-8.1-2.13-2.93-4.21-5.9-6.43-8.76-4.67-6.01-3.72-9.68,3.37-12.71,1.88-.8,3.86-1.45,5.59-2.51,3.18-1.93,3.23-5.53.21-7.72-1.85-1.34-3.99-1.86-5.99-1.73Z"/><path class="cls-1" d="m170.74,58.94c-3.99-.31-7.16.07-10.26-.95-4-1.32-6.04-3.83-5.75-8.07.27-3.94,2.61-5.95,6.34-6.45,9.25-1.22,18.56-1.9,27.89-1.66,3.32.09,6.31,1.43,7.35,4.94,1.04,3.52-.52,6.13-3.66,7.83-.83.45-1.74.69-1.61,1.95.66,6.35-1.48,12.92,1.6,19.09,1.72,3.46,1.68,6.79-1.63,9.35-3.55,2.73-7.3,2.52-11,.2-2.64-1.66-3.96-4.43-5.66-7.03-7.35,5.08-15.39,7.6-24.23,5.98-13.85-2.54-22.98-13.26-23.27-28.17-.33-17.01,5.82-31.47,19.51-42.11,10.54-8.2,28.58-8.88,39.8-1.63,4.72,3.05,8.86,6.72,8.7,13.15-.12,5.04-3.3,9.31-8.18,10.94-5.09,1.71-7.5-1.52-9.92-5.05-3.73-5.46-9.51-6.67-15.77-3.45-9.4,4.83-16.44,19.42-14.39,29.83,1.26,6.42,5.2,9.54,11.73,9.09,5.19-.35,9.02-3.02,12.41-7.8Zm12.81-13.17c0-.1-.01-.21-.02-.31-7.08.6-14.16,1.19-21.23,1.79-2.07.18-3.68.78-3.69,3.35,0,2.43,1.48,3.21,3.46,3.78,3.43.98,6.92.44,10.38.43,4.03,0,4.28,1.94,2.6,4.75-3.27,5.49-7.76,9.5-14.25,10.8-9.54,1.91-17.31-3.39-18.1-13.04-.99-12.04,3.04-22.44,12.46-30.23,9.37-7.76,18.58-6.42,25.72,3.45,2.26,3.13,4.52,2.88,7.13.78,4.57-3.68,3.96-9.65-1.43-14.08-9.51-7.82-26.91-8.49-37.29-.62-14.73,11.18-20.6,26.55-17.81,44.61,1.5,9.71,7.81,16.27,17.79,18.74,8.1,2,15.38-.01,22.02-4.52,3.72-2.53,5.98-2.78,7.52,2.17.9,2.9,2.97,5.3,6.52,5.27,2.65-.02,5.56-1.23,4.15-4.07-3.6-7.3-1.79-14.89-2.3-22.35-.17-2.51.02-4.77,3.28-5.28,1.35-.21,2.23-1.35,2.15-2.74-.09-1.71-1.57-2.42-2.95-2.58-2.02-.24-4.09-.06-6.14-.06Z"/><path class="cls-1" d="m737.39,54.74c.17,8.1-1.48,16-2.92,23.9-.9,4.89-6.09,8.2-11,7.7-4.5-.46-7.7-4.32-8.05-9.62-.3-4.63.59-9.12,1.54-13.59.76-3.58,1.13-7.16.7-10.8-.18-1.5.1-3.62-1.7-3.94-1.79-.31-2.38,1.83-3.1,3.13-3.28,5.91-4.49,12.39-4.81,19.06-.12,2.52.02,5.06-.04,7.58-.1,4.31-2.14,7.28-6.46,8.11-4.43.85-7.76-.86-9.5-5.14-2.86-7.05-2.71-14.54-2.61-21.91.1-7.06.25-14.21,2.47-21.05,2.19-6.77,7.27-8.34,12.62-3.79,1.07.91,1.39.97,2.51.18,15.46-10.84,28.36-4.66,30.3,14.5.19,1.88.03,3.79.03,5.68Zm-44.09,5.88c.65,5.51-.35,11.75,1.85,17.68.92,2.49,2.02,4.73,5.33,4.21,3.28-.52,3.82-2.85,3.71-5.6-.26-6.5.15-12.93,1.97-19.2,1.23-4.24,2.67-8.44,5.86-11.68,3.3-3.34,6.63-2.73,8.47,1.57,1.39,3.24,1.53,6.68,1.22,10.19-.55,6.27-2.86,12.29-2.42,18.71.21,3.04,1.45,5.24,4.42,5.91,3.33.75,6.04-1.21,6.62-4.03,2.38-11.55,5.21-23.21,1.9-35.04-2.33-8.32-8.73-12.2-16.02-10.1-3.27.94-5.71,3.23-8.17,5.48-1.74,1.6-3.84,2.93-5.38-.01-1.01-1.93-2.05-3.15-4.3-2.72-2.12.4-2.38,2.29-2.88,3.91-2.04,6.57-1.73,13.38-2.2,20.7Z"/><path class="cls-1" d="m420.3,60.49c7.29.82,9.93,4.66,7.82,11.41-2.46,7.85-8.76,11.12-16.12,13.02-13.67,3.53-26.69-2.85-30.32-14.85-4.4-14.56,9.42-36.11,24.38-37.75,5.9-.65,11.5.38,15.16,5.71,3.99,5.81,4.09,12.08,1.47,18.46-.53,1.29-1.43,2.42-2.4,4.01Zm-35.48.33c0,11.59,5.26,18.32,13.93,20.54,9.08,2.33,20.86-1.47,24.56-8.04,1.4-2.48,2.83-5.43.43-7.82-2.74-2.73-4.42.56-6.22,1.95-5.11,3.95-10.74,4.21-16.57,2.33-2.04-.66-3.4-2.34-2.87-4.81.53-2.47,2.49-1.39,3.86-1.39,4.2,0,8.14-.91,11.77-2.97,6.27-3.56,8.67-11.94,5.41-18.57-2.82-5.73-10.12-8.03-16.81-4.61-10.56,5.4-16.45,14.21-17.49,23.38Z"/><path class="cls-1" d="m660.02,75.52c-3.49,3.23-6.55,6.44-10.65,8.35-7.63,3.56-15.07,2.12-20.64-4.09-6.44-7.18-7.93-19.24-3.51-28.4,4.37-9.05,13.45-14.26,23.53-13.45,1.24.1,2.52.3,3.69.72,3.18,1.13,5.77,2.05,9.23-.63,3.99-3.08,9.23-.12,10.33,4.85,1.07,4.84,1.01,9.75.58,14.62-.44,4.93-.07,9.67,1.3,14.43,1.82,6.27.9,9.43-2.8,11.11-3.64,1.66-6.67-.03-9.94-5.55-.32-.54-.63-1.09-1.14-1.96Zm8.76-23.09c0-1.73.05-3.47-.02-5.2-.04-.94-.28-1.87-.46-2.79-.7-3.41-3.54-4.99-5.56-2.58-3.35,4-6.31,2.77-9.9.98-1.49-.74-3.32-.99-5.02-1.08-8.45-.47-15.71,4.01-19.32,11.76-3.6,7.72-2.17,17.83,3.38,23.89,4.27,4.66,9.64,5.75,15.46,3.11,2.77-1.25,5.11-3.11,7.33-5.14q6.16-5.65,10.64,1.39c1,1.57,1.89,3.67,4.3,2.58,2.03-.92,1.75-3.07,1.17-4.6-2.75-7.29-2.69-14.77-1.99-22.33Z"/><path class="cls-1" d="m575.24,56.73c.72-7,.25-14.32,2.51-21.33.94-2.92,2.24-5.67,5.34-6.81,4.14-1.53,7.76.16,9.23,4.89.94,3.01,2.03,2.87,4.43,1.87,3.18-1.33,6.54-2.22,10.07-2.35,3.85-.14,6.45,1.66,7.72,5.06,1.23,3.3.08,6.12-2.68,8.36-3.1,2.53-6.73,4.09-10.27,5.78-5.32,2.53-7.98,6.27-6.92,12.41.69,4.02,1.04,8.13,1.19,12.22.17,4.81-2.77,8.64-6.83,9.51-4.64,1-7.8-.69-10.05-5.76-3.33-7.53-3.1-15.66-3.72-23.83Zm4.05-.31c.48,7.43.01,15.06,3.1,22.2,1.05,2.43,2.28,4.7,5.51,3.89,3.04-.76,4.39-2.92,4.12-5.99-.3-3.45-.72-6.89-1.08-10.33-1.06-10.19.62-13.18,9.89-17.95,2.93-1.51,5.81-3.14,8.61-4.89,1.43-.9,2.12-2.39,1.36-4.1-.69-1.57-1.88-2.33-3.72-2.34-3.58-.03-6.77,1.29-10.01,2.5-6.06,2.27-6.04,2.25-8.02-4-.48-1.5-1.1-3-3.04-3.19-1.85-.19-3.01.65-3.62,2.35-.58,1.62-1.29,3.2-1.68,4.86-1.29,5.56-.96,11.27-1.43,17Z"/><path class="cls-1" d="m271.78,61.72c-.79-14.95,9.99-25.69,24.62-25.61,13.39.07,23.25,8.41,22.99,24.78-.23,14.44-10.83,25.44-24.92,25.46-12.39.02-23.73-9.19-22.68-24.64Zm3.85.07c.42,14.33,8.34,20.48,19.02,20.43,11.56-.05,20.43-8.16,20.78-22.1.29-11.28-8.49-20.83-18.95-20.1-12.11.85-20.35,7.59-20.85,21.76Z"/><path class="cls-1" d="m210.01,62.13c-1.38-12.56,9.84-26.43,24.55-26.08,12.53.3,23.75,8.02,23.23,26.06-.36,12.37-12.07,24.53-25.2,24.34-12.39-.18-23.85-10.54-22.59-24.32Zm43.71-1.87c0-11.57-7.7-20.45-18.74-20.22-11.7.24-20.54,8.03-21.04,21.79-.47,12.91,8.64,20.61,18.96,20.47,10.83-.14,20.82-8.41,20.82-22.04Z"/><path class="cls-3" d="m507.11,64.43c-.53-12.29-1.04-24.58-1.58-36.87-.08-1.83.46-4.11-1.77-4.95-1.86-.7-3.14.89-4.5,1.97-1.26,1-2.5,2.92-4.41,1.25-1.74-1.52-1.19-3.57-.29-5.23.81-1.49,1.94-2.97,3.29-3.97,10.65-7.96,22.46-12.87,35.99-11.87,12.06.89,17.92,10.89,13.34,22.05-1.7,4.13-4.46,7.61-7.06,11.17-1.78,2.43-1.17,4,1.45,5.13,1.59.68,3.18,1.39,4.71,2.19,11.4,6,13.03,18.67,3.33,27.21-7.5,6.6-16.92,8.06-26.42,8.78-2.74.21-4.76.67-6.33,3.11-1.53,2.38-4.07,3.17-5.79.52-2.3-3.54-5.75-4.67-9.33-5.91-1.63-.56-3.24-1.23-4.76-2.03-1.82-.96-2.18-2.69-1.62-4.49.51-1.65,1.84-2.52,3.59-2.6.62-.03,1.26.08,1.88.15q6.57.78,6.3-5.62Zm20.08-51.16c-3.97.54-7.79,1.37-11.5,2.79-1.73.67-2.68,1.65-2.37,3.51,1.04,6.22,2.11,12.43,3.2,18.64.48,2.77,2.06,3.37,4.4,1.98,5.62-3.32,10.89-7.05,14.3-12.82,1.9-3.23,3.24-6.73,1.18-10.25-2-3.41-5.81-3.35-9.2-3.86Zm-9.16,46.94c0,2.04-.05,4.09.01,6.13.06,1.98,1.01,3.54,3.11,3.35,6.77-.62,13.47-1.78,18.93-6.23,4.12-3.36,3.44-7.7-1.43-10.01-3.74-1.77-7.72-2.5-11.9-2.3-8.12.39-8.73.97-8.72,9.06Z"/><path class="cls-3" d="m59.12,38.85c-.25,3.93-.57,7.85-.74,11.78-.08,1.88-.39,3.98.28,5.62,1.59,3.92,3.83,7.55-1.36,10.68-.72.43-.35,2.68-.47,4.1-.24,2.98-.38,5.97-1.59,8.77-.66,1.55-1.65,2.75-3.5,2.66-1.68-.08-2.36-1.4-2.95-2.72-1.81-4.05-1.62-8.38-1.26-12.59.4-4.77-1.83-6.25-6.05-6.08-4.1.17-8.19.45-12.29.54-3.07.07-4.16,1.67-4.12,4.51.05,3.31.06,6.63-.01,9.95-.04,2.07-.07,4.18-2.88,4.66-2.77.47-4.23-1.06-4.92-3.32-.86-2.85-1.63-5.77-1.95-8.72-.35-3.24-1.34-4.75-4.82-3.44-1.14.43-2.51.54-3.73.41-2.7-.3-3.61-2.72-1.8-4.74.72-.8,1.68-1.66,2.67-1.88,6.55-1.45,8.07-6.24,8.99-12.05,1.21-7.6,3.2-15.09,6.37-22.15,3.16-7.05,7.31-13.28,15.38-15.6,8.57-2.46,14.52.41,17.81,8.65,2.69,6.75,2.81,13.83,2.94,20.95Zm-10.75,2.76c.1-6.54.23-12.7-1.47-18.66-1.26-4.39-4.33-5.37-7.82-2.51-1.67,1.37-3.1,3.14-4.29,4.96-3.47,5.31-5.45,11.3-7.04,17.36-2.84,10.84-2.52,11.14,8.58,11.24.47,0,.95,0,1.42.01q9.99.2,10.39-9.53c.05-1.1.19-2.19.25-2.87Z"/><path class="cls-3" d="m805.31,17.79c-2.14,15.99-5.22,32.28-5.56,48.88-.09,4.28.19,8.49.49,12.73.14,2,.47,4.37-2.28,5.01-2.37.55-4.07-.94-4.93-2.83-1.56-3.47-3.38-4.21-6.94-2.33-15.65,8.27-29.1-2.74-28.4-18.85.46-10.57,5.3-18.93,14.43-24.59,3.92-2.43,8.28-3.54,12.67-2.09,4.28,1.42,5.34-.55,5.7-4.06.46-4.57,1.59-8.99,3.17-13.28.76-2.04,1.86-3.98,3.01-5.85,1.31-2.12,3.32-2.74,5.75-2.19,2.66.6,2.77,2.7,2.87,4.78.07,1.41.01,2.83.01,4.67Zm-15.64,41.15c.3-2.15-.22-4.63-.91-7.06-2.13-7.5-9.5-9.62-15-4.19-5.2,5.13-7.02,11.53-5.69,18.65,1.03,5.53,4.58,8,10.16,7.66,8.17-.51,11.42-4.66,11.45-15.06Z"/><path class="cls-3" d="m356.2,27.44c2-.13,4.14.38,5.99,1.73,3.02,2.19,2.97,5.78-.21,7.72-1.73,1.05-3.71,1.71-5.59,2.51-7.09,3.03-8.04,6.7-3.37,12.71,2.22,2.86,4.3,5.83,6.43,8.76,1.77,2.44,2.1,5.18,1.79,8.1-.87,8.17-11.87,19.24-19.95,20-1.79.17-3.51-.09-4.69-1.65-1.3-1.73-1.1-3.56-.09-5.33,2.17-3.79,5.6-6.36,8.87-9.1,6.93-5.79,7.06-7.41,1-14.01-5.39-5.86-9.22-12.11-6.11-20.45,2.45-6.58,8.81-11.02,15.94-10.98Z"/><path class="cls-3" d="m183.55,45.77c2.05,0,4.12-.18,6.14.06,1.39.16,2.86.87,2.95,2.58.08,1.39-.8,2.53-2.15,2.74-3.27.51-3.46,2.78-3.28,5.28.51,7.46-1.31,15.05,2.3,22.35,1.4,2.84-1.5,4.05-4.15,4.07-3.55.03-5.62-2.37-6.52-5.27-1.54-4.96-3.8-4.7-7.52-2.17-6.64,4.51-13.92,6.52-22.02,4.52-9.98-2.47-16.29-9.03-17.79-18.74-2.8-18.06,3.08-33.43,17.81-44.61,10.38-7.87,27.78-7.2,37.29.62,5.38,4.43,6,10.4,1.43,14.08-2.61,2.1-4.87,2.34-7.13-.78-7.14-9.87-16.35-11.2-25.72-3.45-9.42,7.8-13.44,18.19-12.46,30.23.79,9.65,8.56,14.95,18.1,13.04,6.5-1.3,10.98-5.31,14.25-10.8,1.68-2.81,1.43-4.76-2.6-4.75-3.46,0-6.94.55-10.38-.43-1.98-.57-3.47-1.35-3.46-3.78,0-2.57,1.62-3.17,3.69-3.35,7.08-.6,14.15-1.2,21.23-1.79,0,.1.01.21.02.31Z"/><path class="cls-3" d="m693.3,60.62c.47-7.32.16-14.13,2.2-20.7.5-1.62.76-3.51,2.88-3.91,2.25-.43,3.29.79,4.3,2.72,1.54,2.94,3.65,1.61,5.38.01,2.45-2.25,4.9-4.54,8.17-5.48,7.3-2.1,13.7,1.78,16.02,10.1,3.31,11.83.48,23.48-1.9,35.04-.58,2.83-3.3,4.78-6.62,4.03-2.97-.67-4.2-2.87-4.42-5.91-.45-6.41,1.86-12.44,2.42-18.71.31-3.51.16-6.96-1.22-10.19-1.85-4.31-5.17-4.91-8.47-1.57-3.2,3.23-4.63,7.44-5.86,11.68-1.82,6.27-2.24,12.7-1.97,19.2.11,2.74-.43,5.08-3.71,5.6-3.31.52-4.4-1.72-5.33-4.21-2.21-5.93-1.2-12.17-1.85-17.68Z"/><path class="cls-3" d="m384.82,60.82c1.04-9.18,6.93-17.99,17.49-23.38,6.69-3.42,14-1.12,16.81,4.61,3.26,6.63.86,15.01-5.41,18.57-3.63,2.06-7.57,2.98-11.77,2.97-1.37,0-3.33-1.08-3.86,1.39-.52,2.47.83,4.15,2.87,4.81,5.83,1.88,11.46,1.62,16.57-2.33,1.8-1.39,3.49-4.68,6.22-1.95,2.39,2.39.96,5.34-.43,7.82-3.7,6.57-15.48,10.37-24.56,8.04-8.67-2.22-13.94-8.95-13.93-20.54Zm19.29-4.35c5.18.08,10.11-3.47,9.98-7.43-.08-2.43-.96-4.6-4.18-4.53-3.59.08-9.52,5.44-9.85,8.9-.33,3.46,2.49,2.41,4.05,3.06Z"/><path class="cls-3" d="m668.78,52.42c-.7,7.56-.76,15.04,1.99,22.33.57,1.53.86,3.68-1.17,4.6-2.41,1.09-3.3-1.01-4.3-2.58q-4.49-7.05-10.64-1.39c-2.21,2.03-4.56,3.88-7.33,5.14-5.81,2.63-11.19,1.55-15.46-3.11-5.55-6.06-6.98-16.17-3.38-23.89,3.61-7.75,10.87-12.23,19.32-11.76,1.7.09,3.53.34,5.02,1.08,3.59,1.78,6.56,3.01,9.9-.98,2.02-2.41,4.86-.83,5.56,2.58.19.92.42,1.86.46,2.79.07,1.73.02,3.47.02,5.2Zm-20.68-.3c-3.98.12-6.97,2.45-8.65,6.36-1.7,3.97-1.66,8.07.83,11.7,1.49,2.16,3.78,2.57,6.28,1.2,4.06-2.22,7.6-5.07,10.55-8.6,2.77-3.31,2.25-6.36-1.38-8.61-2.17-1.35-4.6-1.98-7.63-2.04Z"/><path class="cls-3" d="m579.29,56.42c.47-5.72.14-11.43,1.43-17,.39-1.66,1.1-3.24,1.68-4.86.6-1.7,1.77-2.54,3.62-2.35,1.94.2,2.57,1.69,3.04,3.19,1.98,6.25,1.96,6.26,8.02,4,3.24-1.21,6.43-2.53,10.01-2.5,1.84.02,3.04.78,3.72,2.34.75,1.71.06,3.21-1.36,4.1-2.79,1.75-5.68,3.38-8.61,4.89-9.26,4.77-10.95,7.76-9.89,17.95.36,3.44.78,6.88,1.08,10.33.26,3.07-1.08,5.23-4.12,5.99-3.23.81-4.46-1.46-5.51-3.89-3.09-7.15-2.63-14.77-3.1-22.2Z"/><path class="cls-2" d="m275.63,61.79c.49-14.17,8.74-20.91,20.85-21.76,10.46-.73,19.24,8.82,18.95,20.1-.36,13.94-9.22,22.05-20.78,22.1-10.68.04-18.6-6.11-19.02-20.43Zm11.35.19c0,6.93,2.95,10.18,9.23,10.15,6.53-.02,10.81-4.58,10.78-11.5-.02-6.02-3.51-9.43-9.63-9.42-6.92,0-10.37,3.59-10.38,10.77Z"/><path class="cls-2" d="m253.72,60.26c0,13.63-9.99,21.9-20.82,22.04-10.32.13-19.42-7.56-18.96-20.47.5-13.77,9.33-21.55,21.04-21.79,11.05-.23,18.75,8.65,18.74,20.22Zm-8.5.66c.01-7.16-2.31-9.69-8.92-9.71-7.12-.02-11.1,3.93-11.09,11.02.01,6.42,3.23,9.91,9.12,9.91,7.02,0,10.87-3.98,10.88-11.22Z"/><path class="cls-1" d="m527.19,13.27c3.4.51,7.21.45,9.2,3.86,2.06,3.52.72,7.02-1.18,10.25-3.41,5.77-8.68,9.5-14.3,12.82-2.34,1.39-3.92.79-4.4-1.98-1.09-6.21-2.16-12.42-3.2-18.64-.31-1.86.64-2.85,2.37-3.51,3.71-1.43,7.54-2.25,11.5-2.79Zm-7.15,22.52c6.29-3.26,10.57-7.35,12.54-11.88,1.76-4.05.83-5.85-3.51-6.49-3.18-.47-6.17.6-9.23,1.33-2.07.5-2.43,1.34-2.07,3.26.86,4.55,1.52,9.13,2.27,13.78Z"/><path class="cls-1" d="m518.03,60.22c0-8.09.6-8.67,8.73-9.06,4.18-.2,8.16.54,11.9,2.3,4.87,2.3,5.55,6.65,1.43,10.01-5.46,4.45-12.16,5.61-18.93,6.23-2.09.19-3.05-1.37-3.11-3.35-.06-2.04-.01-4.09-.02-6.13Zm3.92-.16c0,6.13.01,6.18,5.51,4.75,2.27-.59,4.53-1.31,6.68-2.21,1.86-.78,4.44-1.65,4.39-3.79-.06-2.33-2.87-2.45-4.74-2.92-1.96-.49-4.02-.74-6.04-.87-4.01-.27-7.2.45-5.8,5.05Z"/><path class="cls-1" d="m48.37,41.61c-.06.69-.2,1.78-.25,2.87q-.4,9.73-10.39,9.53c-.47,0-.95,0-1.42-.01-11.1-.1-11.42-.4-8.58-11.24,1.59-6.07,3.57-12.05,7.04-17.36,1.19-1.82,2.62-3.59,4.29-4.96,3.49-2.86,6.56-1.88,7.82,2.51,1.71,5.96,1.58,12.12,1.47,18.66Zm-5.53-18.77c-2.48,1.18-3.74,2.91-4.89,4.82-3.19,5.28-4.91,11.11-6.73,16.95-1.33,4.27-.7,5.77,4.17,5.58,8.29-.33,8.49-.03,8.97-8.23.37-6.34.3-12.73-1.53-19.12Z"/><path class="cls-1" d="m789.67,58.94c-.03,10.4-3.28,14.55-11.45,15.06-5.58.35-9.12-2.13-10.16-7.66-1.33-7.12.5-13.51,5.69-18.65,5.5-5.44,12.87-3.32,15,4.19.69,2.43,1.21,4.91.91,7.06Zm-3.92-1.03c-.06-.46-.28-2.33-.58-4.19-.37-2.32-1.4-4.27-3.81-4.96-2.53-.73-4.26.83-5.71,2.55-3.32,3.95-4.71,8.56-3.9,13.67.56,3.52,2.36,5.67,6.45,5.21,5.79-.65,7.51-2.98,7.54-12.28Z"/><path class="cls-1" d="m404.11,56.46c-1.57-.65-4.38.4-4.05-3.06.33-3.46,6.26-8.82,9.85-8.9,3.22-.07,4.1,2.09,4.18,4.53.13,3.97-4.8,7.52-9.98,7.43Z"/><path class="cls-1" d="m648.1,52.12c3.03.06,5.46.7,7.63,2.04,3.63,2.25,4.15,5.3,1.38,8.61-2.95,3.53-6.48,6.38-10.55,8.6-2.5,1.36-4.8.96-6.28-1.2-2.49-3.62-2.53-7.73-.83-11.7,1.68-3.91,4.66-6.24,8.65-6.36Zm-5.74,11.25c.09,1.54-.36,3.43,1.13,4.35,1.62,1.01,2.8-.73,4.02-1.48,1.46-.89,2.96-1.93,3.99-3.25,1.17-1.51,4.72-2.52,2.65-4.98-1.78-2.12-4.94-2.86-7.81-1.52-2.8,1.32-4.1,3.74-3.98,6.87Z"/><path class="cls-1" d="m286.98,61.97c0-7.18,3.46-10.76,10.38-10.77,6.13,0,9.61,3.4,9.63,9.42.02,6.92-4.25,11.48-10.78,11.5-6.28.02-9.23-3.23-9.23-10.15Zm3.85-.03c-.05,3.75,2.04,6.31,5.19,6.34,3.44.04,6.88-3.48,7.12-7.28.2-3.18-2.48-5.97-5.72-5.96-3.5.02-6.54,3.19-6.59,6.9Z"/><path class="cls-1" d="m245.22,60.91c-.01,7.24-3.87,11.21-10.88,11.22-5.9,0-9.11-3.48-9.12-9.91-.01-7.08,3.97-11.04,11.09-11.02,6.61.02,8.93,2.55,8.92,9.71Zm-8.57-5.88c-4.43.09-7.9,3.56-7.54,7.31.3,3.06,1.38,5.87,5.23,5.92,3.96.05,7.05-3.45,7.04-7.7,0-3.62-1.77-5.42-4.73-5.54Z"/></g></svg>