<?xml version="1.0" encoding="UTF-8"?><svg id="Calque_2" xmlns="http://www.w3.org/2000/svg" viewBox="0 0 182.33 320.36"><defs><style>.cls-1{fill:#fefefe;}.cls-1,.cls-2,.cls-3{stroke-width:0px;}.cls-2{fill:#f0db4e;}.cls-3{fill:#232322;}</style></defs><g id="Calque_2-2"><path class="cls-3" d="m0,187.03c2.24-.99,4.22.02,6.14.92,9.42,4.43,19.47,6.32,29.72,7.17,6.02.5,11.96-.55,17.6-2.76,7.79-3.04,15.69-4.12,24.16-4.07,5.65.04,11.6-2.65,16.89-5.2,3.31-1.59,3.39-6.3,4.98-9.59,6.39-13.28,6.91-27.4,5.14-41.49-1.26-10.02-1.53-20.09-2.71-30.09-.97-8.24,1.41-16.39,1.43-24.64,0-3.98.43-7.91-.64-11.88-.99-3.7-.81-7.51-.36-11.4.51-4.48,1.01-8.98.66-13.64-.64-8.53.54-17.13.66-25.72.08-6.01,6.31-11.92,15.72-12.88,1.56-.16,3.91,1.12,4.58-1.69h5.55c1.04,1.71,2.81,1.47,4.42,1.66,2.48.3,4.87.98,6.79,2.59,6.31,5.31,11.22,12,17.39,17.51,2.68,2.4,5.11,5.14,8.05,7.36,5.74,4.35,12.64,7.44,16.09,14.37v2.78c-6.63,10.64-24.25,16.21-35.99,5.7-.9-.8-2.01-1.45-3.13-1.9-2.17-.87-4.09-4.39-6.34-2.48-2.24,1.9-2.79,5.63-2.22,8.62,1.23,6.45.5,12.46-.81,18.93-1.8,8.9-2.92,18.06-2.9,27.36.01,9.97-.7,19.98-.38,29.96.39,12.17-.54,24.35,3.88,36.33,2.92,7.91,6.13,16.15,6.99,24.5,1.11,10.75,1.94,21.68.53,32.61-.93,7.22-1.34,14.55-.27,21.87,1.31,8.9-5.66,20.44-14.01,23.8-9.09,3.65-18.73,5.37-28.09,8.07-3.25.94-4.47,2.18-4.31,5.69.32,7.07.12,14.17.04,21.26-.02,2.2.08,4.38,1.16,6.28,1.8,3.13.56,4.56-2.4,5.88-4.99,2.22-9.99.8-14.94.42-2.18-.17-1.88-5.88.72-8.26,3.08-2.83,5.5-6.17,8.22-9.28,5.22-5.97,3.27-12.8,3.36-19.42.02-1.49-1.24-1.73-2.33-1.44-11.31,3.04-19.51-4.31-28.62-8.56-1.78-.83-3.56-2.99-5.35-1.69-2.01,1.46-.57,3.81-.04,5.92,1,4,1.62,7.99,1.12,12.29-.6,5.16-.99,10.49,4.97,13.89,3.81,2.17,6.05,6.47,9.59,9.28,1.37,1.09,3.21,3.22,1.99,5.12-1.04,1.63-2.99,3.16-5.53,2.41-1.38-.41-2.68.1-4.05.43-4.28,1.03-8.17.46-11.41-2.99-1.97-2.09-2.25-4.15-1.2-6.7,2.52-6.09.83-12.54,1.55-18.75.64-5.56-1.17-10.87-.51-16.31.58-4.82-.54-8.49-5-11.32-7.24-4.59-14.19-9.66-21.14-14.7-6.95-5.05-9.92-12.74-12.57-20.44-2.18-6.34-3.75-12.89-5.6-19.34-.88-3.09-1.83-6.08-1.86-9.43-.03-4.08-2.2-7.48-5.38-10.13v-2.78Zm87.9,89.45c8.57,1.3,16.42-2.74,24.63-5.27,5.48-1.69,11.47-1.21,16.48-5.08,3.47-2.69,6.39-5.46,6.81-9.84.62-6.51,1.43-12.97,1.51-19.59.12-9.04.18-18.16,1.31-27.21,1-8.06-.61-15.92-3.77-23.47-5.4-12.88-8.34-26.41-8.74-40.3-.34-11.76.32-23.56,1.02-35.31.18-2.98-1.75-5.89-.47-8.55,2.02-4.21,1.08-8.33.7-12.56-.25-2.77.09-5.54,1.03-8.2,1.24-3.5,1.36-7.26,2.29-10.79,1.76-6.68-.92-13.46.94-20,.76-2.66.77-4.49-1.74-6.31-2.85-2.06-4.12-5.34-4.62-8.79-1.09-7.48,2.51-12.03,9.76-12.18,3.04-.06,4.93-1.54,4.99-4.29.07-3.45,2.32-7.51-1.48-10.27-7.52-5.47-15.73-4.34-23.23-.66-6.74,3.3-8.41,10.49-8.44,17.38-.03,5.03-.4,10.06-.15,15.14.64,12.88-.89,25.84,1.24,38.69.12.71-.09,1.55-.36,2.25-1.76,4.62-1.06,9.41-1.2,14.18-.36,11.86,3.19,23.32,2.5,35.41-.42,7.4.19,15.06-.11,22.71-.42,10.91-4.15,20.36-8.77,29.79-.88,1.8-2.17,2.96-3.95,3.64-8.3,3.2-16.73,6.05-25.75,5.68-4.61-.19-9.22.71-13,2.47-11.15,5.2-22.33,5.04-34.03,3.11-3.24-.53-5.98-2.23-9.25-2.49-3.26-.26-4.22.93-3.71,3.94.61,3.64,1.27,7.29,1.7,10.96,2.15,18.41,9.49,33.8,26.31,43.01,11.99,6.57,23,14.79,35.53,20.48,4.52,2.06,8.65,3.85,14.03,2.31ZM161.93,53.24c3.94-.85,8.07-1.6,11.7-3.64,3.99-2.24,3.7-8.02-.54-10.01-3.3-1.55-5.8-3.91-8.28-6.41-4.39-4.45-8.7-8.99-13.24-13.29-4.2-3.97-6.87-3.27-8.42,2.35-1.09,3.96-3.56,5.71-7.27,6.4-1.2.22-2.33.73-3.52,1.02-2.32.56-2.8,2.43-2.66,4.28.14,1.89.16,4.24,2.37,5.1,5.41,2.11,9.94,5.66,14.83,8.62,4.58,2.78,9.59,4.56,15.04,5.58ZM62.47,315.88c1.41-.34,3.23.57,3.81-1.12.6-1.74-1.03-2.28-2.29-2.84-1.89-.83-3.13-2.4-4.51-3.84-.86-.9-1.7-2.89-3.16-1.79-2.02,1.51-.47,4.38-1.62,6.46-.49.88.5,2.12,1.33,1.93,2.43-.55,4.31,1.38,6.44,1.21Zm23.56-.58c3.19.55,5.13-.33,4.75-4.13-.15-1.53-.5-4.08-1.83-3.24-2.41,1.53-5.44,3.29-6.11,6.32-.35,1.58,1.79,1.44,3.19,1.04Z"/><path class="cls-1" d="m182.26,43.56c-3.45-6.93-10.34-10.02-16.09-14.37-2.94-2.23-5.37-4.97-8.05-7.36-6.17-5.51-11.08-12.2-17.39-17.51-1.92-1.62-4.31-2.29-6.79-2.59-1.61-.19-3.38.05-4.42-1.66C146.18.06,162.84.12,179.49,0c2.31-.02,2.86.52,2.84,2.84-.13,13.57-.06,27.15-.06,40.72Z"/><path class="cls-1" d="m87.9,276.48c-5.38,1.55-9.51-.25-14.03-2.31-12.53-5.7-23.54-13.91-35.53-20.48-16.82-9.21-24.16-24.6-26.31-43.01-.43-3.67-1.08-7.31-1.7-10.96-.51-3.01.45-4.2,3.71-3.94,3.27.26,6.02,1.96,9.25,2.49,11.7,1.93,22.89,2.09,34.03-3.11,3.77-1.76,8.39-2.66,13-2.47,9.03.36,17.46-2.49,25.75-5.68,1.79-.69,3.07-1.84,3.95-3.64,4.62-9.43,8.34-18.88,8.77-29.79.3-7.65-.31-15.31.11-22.71.69-12.08-2.86-23.54-2.5-35.41.15-4.76-.55-9.55,1.2-14.18.27-.7.48-1.54.36-2.25-2.13-12.85-.6-25.81-1.24-38.69-.25-5.07.12-10.1.15-15.14.03-6.89,1.7-14.08,8.44-17.38,7.5-3.68,15.71-4.8,23.23.66,3.8,2.76,1.55,6.83,1.48,10.27-.06,2.75-1.95,4.23-4.99,4.29-7.25.14-10.85,4.7-9.76,12.18.5,3.45,1.77,6.73,4.62,8.79,2.51,1.82,2.5,3.65,1.74,6.31-1.86,6.54.82,13.32-.94,20-.93,3.52-1.05,7.28-2.29,10.79-.94,2.66-1.28,5.43-1.03,8.2.39,4.23,1.33,8.35-.7,12.56-1.28,2.67.65,5.57.47,8.55-.69,11.75-1.35,23.56-1.02,35.31.4,13.88,3.34,27.42,8.74,40.3,3.16,7.54,4.77,15.4,3.77,23.47-1.13,9.06-1.19,18.18-1.31,27.21-.09,6.62-.89,13.08-1.51,19.59-.42,4.38-3.34,7.15-6.81,9.84-5,3.88-11,3.4-16.48,5.08-8.21,2.53-16.07,6.57-24.63,5.27Zm-9.39-58.85c.22-.06,2.53,2.25,2.89-.71.32-2.61-1.83-3.09-4.04-3.23-2.63-.17-5.2-.33-7.75.6-3.03,1.11-6.04,2.42-9.18,3.06-6.23,1.27-10.18,5.3-13.46,10.27-1.41,2.13-1.4,4.41.09,6.49,3.88,5.43,8.99,9.9,15.45,10.86,7.6,1.13,15.22,2.87,23.18,1.83,7.56-.99,16.69-7.66,18.8-15.17.33-1.17.35-2.22-.8-2.79-1.2-.59-2.63-.57-3.12.88-1.18,3.47-4.23,5.64-5.8,8.82-.92,1.88-2.37,3.47-4.54,3.51-9.17.16-18.41,1.52-27.45-1.45-3.75-1.23-7.15-2.89-9.71-5.92-3.29-3.88-2.8-5.33.94-8.74,3.22-2.94,7.35-3.43,10.87-5.32,4.06-2.17,8.24-2.19,13.63-2.99ZM135.39,14.42c-.09-2.27-.66-4.01-2.93-4.21-2.07-.18-2.97,1.25-3.11,3.11-.23,3.11,2.67,2.44,4.2,3.06,1.59.64,1.82-.98,1.83-1.97Zm-10.92,5.35c1.88.01,2.14-1.76,2.32-3.66.16-1.67-.77-2.16-2.17-2.09-2.34.12-3,1.83-3.03,3.74-.02,1.27.65,2.34,2.87,2Z"/><path class="cls-2" d="m161.93,53.24c-5.45-1.02-10.46-2.8-15.04-5.58-4.89-2.97-9.42-6.51-14.83-8.62-2.2-.86-2.23-3.21-2.37-5.1-.14-1.85.35-3.72,2.66-4.28,1.19-.29,2.33-.79,3.52-1.02,3.72-.7,6.19-2.44,7.27-6.4,1.55-5.63,4.22-6.33,8.42-2.35,4.54,4.29,8.84,8.84,13.24,13.29,2.48,2.51,4.98,4.86,8.28,6.41,4.24,1.99,4.53,7.76.54,10.01-3.63,2.04-7.76,2.79-11.7,3.64Z"/><path class="cls-2" d="m62.47,315.88c-2.13.18-4.01-1.76-6.44-1.21-.83.19-1.82-1.05-1.33-1.93,1.15-2.08-.4-4.94,1.62-6.46,1.46-1.09,2.3.89,3.16,1.79,1.38,1.44,2.62,3.01,4.51,3.84,1.26.56,2.89,1.09,2.29,2.84-.58,1.7-2.4.79-3.81,1.12Z"/><path class="cls-2" d="m86.03,315.31c-1.41.4-3.55.54-3.19-1.04.68-3.04,3.71-4.8,6.11-6.32,1.32-.84,1.67,1.71,1.83,3.24.38,3.79-1.55,4.68-4.75,4.13Z"/><path class="cls-3" d="m78.51,217.62c-5.39.79-9.57.81-13.63,2.99-3.52,1.88-7.65,2.38-10.87,5.32-3.74,3.42-4.23,4.86-.94,8.74,2.56,3.03,5.96,4.69,9.71,5.92,9.04,2.96,18.27,1.61,27.45,1.45,2.17-.04,3.62-1.63,4.54-3.51,1.56-3.18,4.62-5.35,5.8-8.82.49-1.45,1.92-1.47,3.12-.88,1.15.56,1.13,1.61.8,2.79-2.11,7.52-11.24,14.19-18.8,15.17-7.96,1.04-15.57-.7-23.18-1.83-6.46-.96-11.57-5.43-15.45-10.86-1.49-2.09-1.5-4.36-.09-6.49,3.29-4.97,7.23-9,13.46-10.27,3.14-.64,6.15-1.95,9.18-3.06,2.55-.93,5.13-.77,7.75-.6,2.21.14,4.36.63,4.04,3.23-.36,2.95-2.67.65-2.89.71Z"/><path class="cls-3" d="m135.39,14.42c-.01.99-.25,2.61-1.83,1.97-1.54-.62-4.44.05-4.2-3.06.14-1.87,1.03-3.29,3.11-3.11,2.27.2,2.84,1.94,2.93,4.21Z"/><path class="cls-3" d="m124.46,19.77c-2.22.33-2.89-.73-2.87-2,.03-1.91.68-3.62,3.03-3.74,1.4-.07,2.33.42,2.17,2.09-.18,1.89-.44,3.67-2.32,3.66Z"/></g></svg>